<svg width="125" height="42" viewBox="0 0 125 42" fill="none" xmlns="http://www.w3.org/2000/svg">
<g clip-path="url(#clip0_261_7977)">
<path d="M5.19006 25.0383C5.19006 28.5079 7.45017 30.4596 10.1054 30.4596C12.7607 30.4596 14.0859 28.7055 14.5148 27.2213L19.0784 28.7441C18.2206 31.9439 15.2184 35.2208 10.1054 35.2208C4.44794 35.2208 0 30.9319 0 25.0383C0 19.1446 4.37083 14.8557 9.94641 14.8557C15.175 14.8557 18.1387 18.0941 18.9579 21.3324L14.3172 22.8938C13.8498 21.2939 12.6402 19.6554 10.0669 19.6554C7.49354 19.6554 5.19006 21.5686 5.19006 25.0383Z" fill="#00AEEF"/>
<path d="M29.0585 34.6377H23.8685V6.39355H29.0585V17.0435C30.3067 15.5593 32.4126 14.9376 34.2486 14.9376C39.1254 14.9376 41.3855 18.3302 41.3855 22.5468V34.6377H36.1955V23.4432C36.1955 21.2987 35.1401 19.6217 32.6439 19.6217C30.4609 19.6217 29.1694 21.2602 29.0537 23.3661V34.6377H29.0585Z" fill="#00AEEF"/>
<path d="M50.2043 5.92603C51.997 5.92603 53.4041 7.37172 53.4041 9.16439C53.4041 10.9571 52.0018 12.3257 50.2043 12.3257C48.4068 12.3257 47.0045 10.88 47.0045 9.16439C47.0045 7.44883 48.4502 5.92603 50.2043 5.92603ZM47.6262 34.6376V15.4435H52.8162V34.6376H47.6262Z" fill="#00AEEF"/>
<path d="M59.3315 34.6377V6.39355H64.5215V34.6377H59.3315Z" fill="#00AEEF"/>
<path d="M71.032 34.6377V6.39355H76.2221V34.6377H71.032Z" fill="#00AEEF"/>
<path d="M114.239 11.627V10.1572H119.646V11.3041C119.198 11.7427 118.745 12.374 118.282 13.1932C117.82 14.0172 117.468 14.8895 117.227 15.8147C116.986 16.74 116.866 17.564 116.87 18.2917H115.343C115.367 17.1496 115.603 15.9882 116.051 14.8027C116.494 13.6173 117.092 12.5571 117.829 11.6222H114.234L114.239 11.627Z" fill="#221F1F"/>
<path d="M108.037 32.0306L97.2811 15.5303V32.0306H93.5946V10.2439H98.2979L108.191 25.6984V10.2439H111.878V32.0306H108.037Z" fill="#221F1F"/>
<path d="M120.827 41.0615H89.0599C86.7564 41.0615 84.8818 39.1869 84.8818 36.8834V5.11655C84.8818 2.81307 86.7564 0.938477 89.0599 0.938477H120.827C123.13 0.938477 125.005 2.81307 125.005 5.11655V36.8834C125.005 39.1869 123.13 41.0615 120.827 41.0615ZM89.0599 2.81307C87.7925 2.81307 86.7564 3.84433 86.7564 5.11655V36.8834C86.7564 38.1508 87.7877 39.1869 89.0599 39.1869H120.827C122.094 39.1869 123.13 38.1556 123.13 36.8834V5.11655C123.13 3.84915 122.099 2.81307 120.827 2.81307H89.0599Z" fill="#231F20"/>
</g>
<defs>
<clipPath id="clip0_261_7977">
<rect width="125" height="40.123" fill="white" transform="translate(0 0.938477)"/>
</clipPath>
</defs>
</svg>
